<?xml version="1.0" encoding="utf-8"?>
<!-- Generator: Adobe Illustrator 23.0.0, SVG Export Plug-In . SVG Version: 6.00 Build 0)  -->
<svg version="1.1" id="Layer_1" xmlns="http://www.w3.org/2000/svg" xmlns:xlink="http://www.w3.org/1999/xlink" x="0px" y="0px"
	 viewBox="0 0 424.8 248.7" style="enable-background:new 0 0 424.8 248.7;" xml:space="preserve">
<style type="text/css">
	.st0{fill:#75CDD5;}
	.st1{fill:#74CDD5;}
	.st2{fill:#FFFFFF;}
	.st3{fill:#F79433;}
	.st4{opacity:0.8;}
	.st5{fill:#F1F2F2;}
	.st6{fill:#F4F9FC;}
</style>
<g>
	<g>
		<polygon class="st0" points="303.3,162.3 303.3,242.2 304.4,242.2 304.4,161.5 304,161.5 		"/>
		<polygon class="st0" points="307.8,161.5 307.8,242.2 309,242.2 309,162.3 308.3,161.5 		"/>
		<g>
			<rect x="305.7" y="155.7" width="1" height="86.5"/>
		</g>
		<g>
			<polygon points="295.4,242.2 294.4,242.2 294.4,237.1 296.2,237.1 296.8,233.9 296.8,225.1 298.1,212.9 298.8,194.4 299.4,187.6 
				299.4,164.8 303.8,160.5 306.2,160.5 306.2,161.5 304.2,161.5 300.4,165.3 300.4,187.6 299.8,194.5 299.1,213 297.8,225.2 
				297.8,234 297,238.1 295.4,238.1 			"/>
		</g>
		<g>
			<polygon points="317.9,242.2 316.9,242.2 316.9,238.1 315.3,238.1 314.5,233.9 314.5,225.1 313.2,213.1 312.5,194.4 311.9,187.6 
				311.9,165.3 308.1,161.5 306.2,161.5 306.2,160.5 308.6,160.5 312.9,164.8 312.9,187.6 313.5,194.4 314.2,213 315.5,225.1 
				315.5,233.9 316.1,237.1 317.9,237.1 			"/>
		</g>
	</g>
	<g>
		<rect y="241.7" width="424.8" height="1"/>
	</g>
	<g>
		<g>
			<g>
				<rect x="268.1" width="1.4" height="13.9"/>
			</g>
		</g>
		<g>
			<g>
				<rect x="268.1" y="16.4" width="1.4" height="10"/>
			</g>
		</g>
		<g>
			<g>
				
					<rect x="263" y="11.6" transform="matrix(0.9212 -0.3891 0.3891 0.9212 14.2817 103.9047)" class="st1" width="1.4" height="10.1"/>
			</g>
		</g>
		<g>
			<g>
				<rect x="259.7" y="5.9" transform="matrix(0.9212 -0.3891 0.3891 0.9212 17.2238 101.9596)" width="1.4" height="5.1"/>
			</g>
		</g>
		<g>
			<g>
				<rect x="251.9" y="6.8" transform="matrix(0.7071 -0.7071 0.7071 0.7071 64.2479 182.6306)" width="1.4" height="13.9"/>
			</g>
		</g>
		<g>
			<g>
				<rect x="262.1" y="19" transform="matrix(0.7071 -0.7071 0.7071 0.7071 60.0274 192.8198)" width="1.4" height="10"/>
			</g>
		</g>
		<g>
			<g>
				<rect x="255.2" y="19.2" transform="matrix(0.3763 -0.9265 0.9265 0.3763 137.072 252.1794)" width="1.4" height="10.1"/>
			</g>
		</g>
		<g>
			<g>
				<rect x="247" y="18.3" transform="matrix(0.3762 -0.9265 0.9265 0.3762 135.1967 242.4437)" width="1.4" height="5.1"/>
			</g>
		</g>
		<g>
			<g>
				<rect x="239" y="29.4" class="st1" width="13.9" height="1.4"/>
			</g>
		</g>
		<g>
			<g>
				<rect x="255.3" y="29.4" width="10" height="1.4"/>
			</g>
		</g>
		<g>
			<g>
				<rect x="250.6" y="34.5" transform="matrix(0.9212 -0.3891 0.3891 0.9212 6.4476 102.2442)" width="10.1" height="1.4"/>
			</g>
		</g>
		<g>
			<g>
				<rect x="244.9" y="37.9" transform="matrix(0.9212 -0.3891 0.3891 0.9212 4.5022 99.3019)" width="5.1" height="1.4"/>
			</g>
		</g>
		<g>
			<g>
				
					<rect x="245.8" y="45.6" transform="matrix(0.7071 -0.7071 0.7071 0.7071 41.2701 192.2699)" class="st1" width="13.9" height="1.4"/>
			</g>
		</g>
		<g>
			<g>
				<rect x="257.9" y="35.4" transform="matrix(0.7071 -0.7071 0.7071 0.7071 51.4592 196.4904)" width="10" height="1.4"/>
			</g>
		</g>
		<g>
			<g>
				<rect x="258.2" y="42.4" transform="matrix(0.3765 -0.9264 0.9264 0.3765 124.2389 270.7184)" width="10.1" height="1.4"/>
			</g>
		</g>
		<g>
			<g>
				<rect x="257.2" y="50.6" transform="matrix(0.3765 -0.9264 0.9264 0.3765 114.4982 272.6052)" width="5.1" height="1.4"/>
			</g>
		</g>
		<g>
			<g>
				<rect x="268.4" y="46" width="1.4" height="13.9"/>
			</g>
		</g>
		<g>
			<g>
				<rect x="268.4" y="33.6" width="1.4" height="10"/>
			</g>
		</g>
		<g>
			<g>
				
					<rect x="273.5" y="38.2" transform="matrix(0.9212 -0.3891 0.3891 0.9212 4.7762 110.072)" class="st1" width="1.4" height="10.1"/>
			</g>
		</g>
		<g>
			<g>
				<rect x="276.8" y="48.9" transform="matrix(0.9212 -0.3891 0.3891 0.9212 1.8378 112.0338)" width="1.4" height="5.1"/>
			</g>
		</g>
		<g>
			<g>
				<rect x="284.6" y="39.2" transform="matrix(0.7071 -0.7071 0.7071 0.7071 50.9093 215.2477)" width="1.4" height="13.9"/>
			</g>
		</g>
		<g>
			<g>
				<rect x="274.4" y="31" transform="matrix(0.7071 -0.7071 0.7071 0.7071 55.1298 205.0585)" width="1.4" height="10"/>
			</g>
		</g>
		<g>
			<g>
				<rect x="281.3" y="30.6" transform="matrix(0.3763 -0.9265 0.9265 0.3763 142.866 283.5275)" width="1.4" height="10.1"/>
			</g>
		</g>
		<g>
			<g>
				<rect x="289.5" y="36.6" transform="matrix(0.3763 -0.9265 0.9265 0.3763 144.7578 293.2715)" width="1.4" height="5.1"/>
			</g>
		</g>
		<g>
			<g>
				<rect x="285" y="29.2" class="st1" width="13.9" height="1.4"/>
			</g>
		</g>
		<g>
			<g>
				<rect x="272.6" y="29.2" width="10" height="1.4"/>
			</g>
		</g>
		<g>
			<g>
				<rect x="277.1" y="24" transform="matrix(0.9212 -0.3891 0.3891 0.9212 12.6156 111.7503)" width="10.1" height="1.4"/>
			</g>
		</g>
		<g>
			<g>
				<rect x="287.9" y="20.7" transform="matrix(0.9212 -0.3891 0.3891 0.9212 14.561 114.6926)" width="5.1" height="1.4"/>
			</g>
		</g>
		<g>
			<g>
				
					<rect x="278.2" y="12.9" transform="matrix(0.7071 -0.7071 0.7071 0.7071 73.8871 205.6085)" class="st1" width="13.9" height="1.4"/>
			</g>
		</g>
		<g>
			<g>
				<rect x="270" y="23.1" transform="matrix(0.7071 -0.7071 0.7071 0.7071 63.6979 201.388)" width="10" height="1.4"/>
			</g>
		</g>
		<g>
			<g>
				<rect x="269.5" y="16.2" transform="matrix(0.3764 -0.9265 0.9265 0.3764 155.6295 264.948)" width="10.1" height="1.4"/>
			</g>
		</g>
		<g>
			<g>
				<rect x="275.6" y="8" transform="matrix(0.3765 -0.9264 0.9264 0.3765 165.3245 263.0392)" width="5.1" height="1.4"/>
			</g>
		</g>
	</g>
	<g>
		<g>
			<g>
				<rect x="92" y="78.6" width="1.4" height="10.7"/>
			</g>
		</g>
		<g>
			<g>
				<rect x="92" y="91.8" width="1.4" height="7.3"/>
			</g>
		</g>
		<g>
			<g>
				
					<rect x="80.7" y="87.9" transform="matrix(0.7071 -0.7071 0.7071 0.7071 -40.7108 84.2507)" class="st1" width="1.4" height="6.8"/>
			</g>
		</g>
		<g>
			<g>
				<rect x="87.4" y="94.4" transform="matrix(0.7071 -0.7071 0.7071 0.7071 -43.5015 90.9844)" width="1.4" height="7.3"/>
			</g>
		</g>
		<g>
			<g>
				<rect x="68.9" y="101.4" class="st1" width="10.7" height="1.4"/>
			</g>
		</g>
		<g>
			<g>
				<rect x="82.1" y="101.4" width="7.3" height="1.4"/>
			</g>
		</g>
		<g>
			<g>
				<rect x="78.2" y="112.8" transform="matrix(0.7071 -0.7071 0.7071 0.7071 -56.3455 90.9203)" width="6.8" height="1.4"/>
			</g>
		</g>
		<g>
			<g>
				<rect x="84.7" y="106.1" transform="matrix(0.7071 -0.7071 0.7071 0.7071 -49.6071 93.7067)" width="7.3" height="1.4"/>
			</g>
		</g>
		<g>
			<g>
				<rect x="91.7" y="115.2" width="1.4" height="10.7"/>
			</g>
		</g>
		<g>
			<g>
				<rect x="91.7" y="105.4" width="1.4" height="7.3"/>
			</g>
		</g>
		<g>
			<g>
				
					<rect x="103.1" y="109.9" transform="matrix(0.7071 -0.7071 0.7071 0.7071 -49.6759 106.555)" class="st1" width="1.4" height="6.8"/>
			</g>
		</g>
		<g>
			<g>
				<rect x="96.4" y="102.9" transform="matrix(0.7071 -0.7071 0.7071 0.7071 -46.8848 99.8123)" width="1.4" height="7.3"/>
			</g>
		</g>
		<g>
			<g>
				<rect x="105.6" y="101.7" class="st1" width="10.7" height="1.4"/>
			</g>
		</g>
		<g>
			<g>
				<rect x="95.8" y="101.7" width="7.3" height="1.4"/>
			</g>
		</g>
		<g>
			<g>
				<rect x="100.2" y="90.4" transform="matrix(0.7071 -0.7071 0.7071 0.7071 -34.0412 99.8854)" width="6.8" height="1.4"/>
			</g>
		</g>
		<g>
			<g>
				<rect x="93.2" y="97.1" transform="matrix(0.7071 -0.7071 0.7071 0.7071 -40.7792 97.0901)" width="7.3" height="1.4"/>
			</g>
		</g>
	</g>
	<g>
		<g>
			<g>
				<rect x="327.1" y="71.8" width="1.2" height="9.2"/>
			</g>
		</g>
		<g>
			<g>
				<rect x="327.1" y="83.2" width="1.2" height="6.3"/>
			</g>
		</g>
		<g>
			<g>
				
					<rect x="317.3" y="79.9" transform="matrix(0.7071 -0.7071 0.7071 0.7071 34.567 249.013)" class="st1" width="1.2" height="5.9"/>
			</g>
		</g>
		<g>
			<g>
				<rect x="323.1" y="85.5" transform="matrix(0.7071 -0.7071 0.7071 0.7071 32.1461 254.8354)" width="1.2" height="6.3"/>
			</g>
		</g>
		<g>
			<g>
				<rect x="307.1" y="91.6" class="st1" width="9.2" height="1.2"/>
			</g>
		</g>
		<g>
			<g>
				<rect x="318.5" y="91.6" width="6.3" height="1.2"/>
			</g>
		</g>
		<g>
			<g>
				<rect x="315.1" y="101.4" transform="matrix(0.7071 -0.7071 0.7071 0.7071 21.0351 254.7856)" width="5.9" height="1.2"/>
			</g>
		</g>
		<g>
			<g>
				<rect x="320.8" y="95.6" transform="matrix(0.7071 -0.7071 0.7071 0.7071 26.8617 257.1916)" width="6.3" height="1.2"/>
			</g>
		</g>
		<g>
			<g>
				<rect x="326.9" y="103.5" width="1.2" height="9.2"/>
			</g>
		</g>
		<g>
			<g>
				<rect x="326.9" y="95.1" width="1.2" height="6.3"/>
			</g>
		</g>
		<g>
			<g>
				
					<rect x="336.7" y="98.9" transform="matrix(0.7071 -0.7071 0.7071 0.7071 26.8077 268.3176)" class="st1" width="1.2" height="5.9"/>
			</g>
		</g>
		<g>
			<g>
				<rect x="330.9" y="92.8" transform="matrix(0.7071 -0.7071 0.7071 0.7071 29.2178 262.476)" width="1.2" height="6.3"/>
			</g>
		</g>
		<g>
			<g>
				<rect x="338.8" y="91.8" class="st1" width="9.2" height="1.2"/>
			</g>
		</g>
		<g>
			<g>
				<rect x="330.3" y="91.8" width="6.3" height="1.2"/>
			</g>
		</g>
		<g>
			<g>
				<rect x="334.2" y="82" transform="matrix(0.7071 -0.7071 0.7071 0.7071 40.3396 262.545)" width="5.9" height="1.2"/>
			</g>
		</g>
		<g>
			<g>
				<rect x="328.1" y="87.8" transform="matrix(0.7071 -0.7071 0.7071 0.7071 34.5023 260.1198)" width="6.3" height="1.2"/>
			</g>
		</g>
	</g>
	<g>
		<g>
			<path class="st1" d="M249.3,247.6h-81.8c-5.5,0-10-4.5-10-10V95c0-5.5,4.5-10,10-10h81.8c5.5,0,10,4.5,10,10v142.6
				C259.3,243.1,254.8,247.6,249.3,247.6z"/>
		</g>
		<g>
			<g>
				<path class="st2" d="M182.3,102.3h-5.3v6.2h5.3v1.7h-12.8v-1.7h6v-6.2h-6v-1.6h12.8V102.3z"/>
			</g>
			<g>
				<path class="st2" d="M175.2,116.8H174v-4.7h1.2V116.8z"/>
			</g>
			<g>
				<path class="st2" d="M182.3,118.8v1.6h-11.4v5.5h-1.4v-7.1H182.3z"/>
			</g>
			<g>
				<path class="st2" d="M182.3,129.4h-12.8v-1.6h12.8V129.4z"/>
			</g>
			<g>
				<path class="st2" d="M169.5,135.1l12.8-4.2v1.8l-6.3,2c-1.7,0.5-3.3,1-4.8,1.4v0c1.5,0.4,3.1,0.9,4.8,1.5l6.3,2.2v1.8l-12.8-4.6
					V135.1z"/>
			</g>
			<g>
				<path class="st2" d="M175.5,149.4v-5h-4.6v5.5h-1.4v-7.2h12.8v6.9h-1.4v-5.2h-4v5H175.5z"/>
			</g>
			<g>
				<path class="st2" d="M169.9,165.1c-0.3-0.6-0.6-1.8-0.6-3.4c0-3.6,2.3-6.3,6.5-6.3c4,0,6.7,2.7,6.7,6.7c0,1.6-0.3,2.6-0.6,3
					l-1.3-0.4c0.3-0.6,0.5-1.5,0.5-2.6c0-3-1.9-5-5.3-5c-3.1,0-5.1,1.8-5.1,4.9c0,1,0.2,2,0.5,2.7L169.9,165.1z"/>
			</g>
			<g>
				<path class="st2" d="M182.9,167.1v1.7h-13.5v-1.7H182.9z"/>
			</g>
			<g>
				<path class="st2" d="M172,179.2c-0.9,0-1.8,0-2.5,0.1v-1.5l1.5-0.1v0c-0.7-0.4-1.7-1.4-1.7-3c0-1.4,0.8-3.2,4-3.2h5.4v1.7h-5.1
					c-1.7,0-2.9,0.5-2.9,2c0,1.1,0.8,1.9,1.5,2.2c0.2,0.1,0.5,0.2,0.9,0.2h5.6v1.7H172z"/>
			</g>
			<g>
				<path class="st2" d="M169.5,181.9c0.6,0,1.6,0.1,2.4,0.1h11.1v1.6h-5.8v0c1,0.6,1.7,1.6,1.7,3.1c0,2.3-1.9,3.9-4.7,3.9
					c-3.3,0-4.9-2.1-4.9-4.1c0-1.3,0.5-2.4,1.7-3.1v-0.1l-1.5-0.1V181.9z M173.2,183.7c-0.2,0-0.4,0-0.6,0.1c-1.2,0.3-2,1.3-2,2.5
					c0,1.7,1.4,2.8,3.5,2.8c1.8,0,3.4-0.9,3.4-2.7c0-1.1-0.8-2.2-2-2.5c-0.2,0-0.4-0.1-0.7-0.1H173.2z"/>
			</g>
		</g>
		<g>
			<rect x="173.3" y="221.1" width="2.8" height="15"/>
		</g>
		<g>
			<rect x="181.3" y="221.1" width="2.8" height="15"/>
		</g>
		<g>
			<rect x="178.5" y="221.1" width="2.2" height="15"/>
		</g>
		<g>
			<rect x="186.7" y="221.1" width="4.9" height="15"/>
		</g>
		<g>
			<rect x="194.2" y="221.1" width="1.4" height="15"/>
		</g>
		<g>
			<rect x="202.3" y="221.1" width="3.4" height="15"/>
		</g>
		<g>
			<rect x="217.2" y="221.1" width="4.2" height="15"/>
		</g>
		<g>
			<rect x="199" y="221.1" width="2.2" height="15"/>
		</g>
		<g>
			<rect x="209.2" y="221.1" width="2.2" height="15"/>
		</g>
		<g>
			<rect x="213.2" y="221.1" width="2.8" height="15"/>
		</g>
		<g>
			<circle class="st3" cx="260.8" cy="232.6" r="16.2"/>
		</g>
		<g class="st4">
			<g>
				<path class="st5" d="M257.9,227.6c0.7-0.1,1.7-0.2,3-0.2c1.5,0,2.6,0.4,3.3,1c0.7,0.6,1,1.4,1,2.5c0,1.1-0.3,1.9-0.9,2.6
					c-0.8,0.9-2.1,1.3-3.7,1.3c-0.5,0-0.9,0-1.2-0.1v4.8h-1.5V227.6z M259.5,233.4c0.3,0.1,0.8,0.1,1.3,0.1c1.9,0,3-0.9,3-2.6
					c0-1.6-1.1-2.3-2.8-2.3c-0.7,0-1.2,0.1-1.5,0.1V233.4z"/>
			</g>
		</g>
	</g>
	<g>
		<g>
			<g>
				<path class="st0" d="M73.2,242.9c-0.1,0-10.2-1.4-13.7-13.6c-3.3-11.5-14.1-15.8-14.2-15.8l0.5-1.3c0.5,0.2,11.5,4.5,15,16.7
					c3.3,11.4,12.2,12.6,12.6,12.7L73.2,242.9z"/>
			</g>
		</g>
		<g>
			<g>
				<g>
					<path d="M43.6,194.2H22.1v-2.7c0-0.5,0.3-1,0.7-1.3L32,184c0.5-0.4,1.2-0.4,1.8,0l9.1,6.2c0.4,0.3,0.7,0.8,0.7,1.3V194.2z
						 M23.2,193.2h19.4v-1.8c0-0.2-0.1-0.4-0.3-0.5l-9.1-6.2c-0.2-0.1-0.5-0.1-0.7,0l-9.1,6.2c-0.2,0.1-0.3,0.3-0.3,0.5V193.2z"/>
				</g>
			</g>
			<g>
				<g>
					<path d="M45,198.1H20.8v-4.9H45V198.1z M21.8,197.1H44v-2.8H21.8V197.1z"/>
				</g>
			</g>
			<g>
				<g>
					<path d="M42.3,242.7H22.4v-45.6h19.8V242.7z M23.5,241.7h17.8v-43.6H23.5V241.7z"/>
				</g>
			</g>
			<g>
				<g>
					<path d="M46.3,213.8H22.4v-13.2h23.8V213.8z M23.5,212.8h21.8v-11.1H23.5V212.8z"/>
				</g>
			</g>
			<g>
				<g>
					<rect x="35.9" y="213.3" width="1" height="28.9"/>
				</g>
			</g>
			<g>
				<g>
					<rect x="22.9" y="236.6" width="18.8" height="1"/>
				</g>
			</g>
			<g>
				<g>
					<rect x="22.9" y="231.9" width="13.5" height="1"/>
				</g>
			</g>
			<g>
				<g>
					<rect x="22.9" y="227.3" width="13.5" height="1"/>
				</g>
			</g>
			<g>
				<g>
					<rect x="22.9" y="222.6" width="13.5" height="1"/>
				</g>
			</g>
			<g>
				<g>
					<rect x="22.9" y="217.9" width="13.5" height="1"/>
				</g>
			</g>
		</g>
	</g>
	<g>
		<g>
			<circle class="st6" cx="398.3" cy="225.3" r="7.5"/>
			<path d="M398.3,233.3c-4.4,0-8-3.6-8-8c0-4.4,3.6-8,8-8c4.4,0,8,3.6,8,8C406.3,229.7,402.7,233.3,398.3,233.3z M398.3,218.3
				c-3.8,0-7,3.1-7,7c0,3.8,3.1,7,7,7c3.8,0,7-3.1,7-7C405.3,221.4,402.1,218.3,398.3,218.3z"/>
		</g>
		<g>
			<circle class="st6" cx="411.3" cy="215.2" r="13"/>
			<path d="M411.3,228.6c-7.4,0-13.5-6-13.5-13.5s6-13.5,13.5-13.5c7.4,0,13.5,6,13.5,13.5S418.7,228.6,411.3,228.6z M411.3,202.7
				c-6.9,0-12.4,5.6-12.4,12.4s5.6,12.4,12.4,12.4s12.4-5.6,12.4-12.4S418.2,202.7,411.3,202.7z"/>
		</g>
		<g>
			<rect x="397.8" y="232.8" width="1" height="9.6"/>
		</g>
		<g>
			<rect x="410.5" y="228.1" width="1" height="14.3"/>
		</g>
		<g>
			<path d="M411.2,233.1l-0.2-1c0.1,0,3-0.7,3.5-3.6l1,0.2C414.8,232.3,411.3,233.1,411.2,233.1z"/>
		</g>
	</g>
	<g>
		<g>
			<path d="M100.8,230.5c-13.2,0-24-10.8-24-24s10.8-24,24-24c13.2,0,24,10.8,24,24S114.1,230.5,100.8,230.5z M100.8,183.5
				c-12.7,0-23,10.3-23,23s10.3,23,23,23s23-10.3,23-23S113.5,183.5,100.8,183.5z"/>
		</g>
		<g>
			<g>
				<circle class="st6" cx="100.8" cy="180.3" r="2.6"/>
				<path d="M100.8,183.4c-1.7,0-3.1-1.4-3.1-3.1c0-1.7,1.4-3.1,3.1-3.1c1.7,0,3.1,1.4,3.1,3.1C103.9,182,102.5,183.4,100.8,183.4z
					 M100.8,178.1c-1.2,0-2.1,1-2.1,2.1s1,2.1,2.1,2.1c1.2,0,2.1-1,2.1-2.1S102,178.1,100.8,178.1z"/>
			</g>
			<g>
				<circle class="st6" cx="100.8" cy="232.9" r="2.6"/>
				<path d="M100.8,236c-1.7,0-3.1-1.4-3.1-3.1c0-1.7,1.4-3.1,3.1-3.1c1.7,0,3.1,1.4,3.1,3.1C103.9,234.6,102.5,236,100.8,236z
					 M100.8,230.7c-1.2,0-2.1,1-2.1,2.1s1,2.1,2.1,2.1c1.2,0,2.1-1,2.1-2.1S102,230.7,100.8,230.7z"/>
			</g>
			<g>
				<rect x="100.3" y="182.9" width="1" height="47.1"/>
			</g>
		</g>
		<g>
			<g>
				<circle class="st6" cx="82.2" cy="188" r="2.6"/>
				<path d="M82.2,191.1c-0.8,0-1.6-0.3-2.2-0.9c-1.2-1.2-1.2-3.2,0-4.4c1.2-1.2,3.2-1.2,4.4,0c1.2,1.2,1.2,3.2,0,4.4
					C83.8,190.8,83,191.1,82.2,191.1z M82.2,185.9c-0.5,0-1.1,0.2-1.5,0.6c-0.8,0.8-0.8,2.2,0,3c0.8,0.8,2.2,0.8,3,0
					c0.8-0.8,0.8-2.2,0-3C83.3,186.1,82.8,185.9,82.2,185.9z"/>
			</g>
			<g>
				<circle class="st6" cx="119.4" cy="225.2" r="2.6"/>
				<path d="M119.4,228.3c-0.8,0-1.6-0.3-2.2-0.9c-1.2-1.2-1.2-3.2,0-4.4c1.2-1.2,3.2-1.2,4.4,0l0,0c1.2,1.2,1.2,3.2,0,4.4
					C121,228,120.2,228.3,119.4,228.3z M119.4,223c-0.5,0-1.1,0.2-1.5,0.6c-0.8,0.8-0.8,2.2,0,3c0.8,0.8,2.2,0.8,3,0
					c0.8-0.8,0.8-2.2,0-3l0,0C120.5,223.2,120,223,119.4,223z"/>
			</g>
			<g>
				<line class="st6" x1="84.1" y1="189.8" x2="117.4" y2="223.1"/>
				<rect x="100.2" y="182.9" transform="matrix(0.7071 -0.7071 0.7071 0.7071 -116.5068 131.707)" width="1" height="47.1"/>
			</g>
		</g>
		<g>
			<g>
				<circle class="st6" cx="74.5" cy="206.6" r="2.6"/>
				<path d="M74.5,209.7c-1.7,0-3.1-1.4-3.1-3.1c0-1.7,1.4-3.1,3.1-3.1s3.1,1.4,3.1,3.1C77.6,208.3,76.2,209.7,74.5,209.7z
					 M74.5,204.4c-1.2,0-2.1,1-2.1,2.1s1,2.1,2.1,2.1s2.1-1,2.1-2.1S75.7,204.4,74.5,204.4z"/>
			</g>
			<g>
				<circle class="st6" cx="127.1" cy="206.6" r="2.6"/>
				<path d="M127.1,209.7c-1.7,0-3.1-1.4-3.1-3.1c0-1.7,1.4-3.1,3.1-3.1s3.1,1.4,3.1,3.1C130.2,208.3,128.8,209.7,127.1,209.7z
					 M127.1,204.4c-1.2,0-2.1,1-2.1,2.1s1,2.1,2.1,2.1s2.1-1,2.1-2.1S128.3,204.4,127.1,204.4z"/>
			</g>
			<g>
				<line class="st6" x1="77.1" y1="206.6" x2="124.2" y2="206.6"/>
				<rect x="77.1" y="206.1" width="47.1" height="1"/>
			</g>
		</g>
		<g>
			<g>
				<circle class="st6" cx="82.2" cy="225.2" r="2.6"/>
				<path d="M82.2,228.3c-0.8,0-1.6-0.3-2.2-0.9c-1.2-1.2-1.2-3.2,0-4.4c1.2-1.2,3.2-1.2,4.4,0c1.2,1.2,1.2,3.2,0,4.4
					C83.8,228,83,228.3,82.2,228.3z M82.2,223c-0.5,0-1.1,0.2-1.5,0.6c-0.8,0.8-0.8,2.2,0,3c0.8,0.8,2.2,0.8,3,0
					c0.8-0.8,0.8-2.2,0-3C83.3,223.2,82.8,223,82.2,223z"/>
			</g>
			<g>
				<circle class="st6" cx="119.4" cy="188" r="2.6"/>
				<path d="M119.4,191.1c-0.8,0-1.6-0.3-2.2-0.9c-1.2-1.2-1.2-3.2,0-4.4c1.2-1.2,3.2-1.2,4.4,0c1.2,1.2,1.2,3.2,0,4.4
					C121,190.8,120.2,191.1,119.4,191.1z M119.4,185.9c-0.5,0-1.1,0.2-1.5,0.6c-0.8,0.8-0.8,2.2,0,3c0.8,0.8,2.2,0.8,3,0
					c0.8-0.8,0.8-2.2,0-3C120.5,186.1,120,185.9,119.4,185.9z"/>
			</g>
			<g>
				<line class="st6" x1="84.1" y1="223.3" x2="117.4" y2="190"/>
				<rect x="77.2" y="206.2" transform="matrix(0.7071 -0.7071 0.7071 0.7071 -116.6235 131.7553)" width="47.1" height="1"/>
			</g>
		</g>
		<g>
			<line class="st6" x1="99.8" y1="207.5" x2="82.2" y2="242"/>
			<rect x="71.7" y="224.2" transform="matrix(0.455 -0.8905 0.8905 0.455 -150.5034 203.5269)" width="38.7" height="1"/>
		</g>
		<g>
			<line class="st6" x1="101.5" y1="207.5" x2="110.8" y2="226.4"/>
			<rect x="105.7" y="206.4" transform="matrix(0.8961 -0.4438 0.4438 0.8961 -85.2574 69.6526)" width="1" height="21.1"/>
		</g>
		<g>
			<circle class="st6" cx="100.7" cy="206.3" r="3.7"/>
			<path class="st0" d="M100.7,210.5c-2.3,0-4.2-1.9-4.2-4.2s1.9-4.2,4.2-4.2c2.3,0,4.2,1.9,4.2,4.2S103,210.5,100.7,210.5z
				 M100.7,203.1c-1.8,0-3.2,1.4-3.2,3.2s1.4,3.2,3.2,3.2c1.8,0,3.2-1.4,3.2-3.2S102.5,203.1,100.7,203.1z"/>
		</g>
	</g>
	<g>
		<g>
			<g>
				<path class="st6" d="M129.4,216.4H120c-5.9,0-10.7,4.7-10.9,10.5h31.2C140.1,221.1,135.3,216.4,129.4,216.4z"/>
			</g>
			<g>
				<path d="M140.8,227.5h-32.3l0-0.5c0.2-6.2,5.3-11,11.4-11h9.4c6.2,0,11.2,4.8,11.4,11L140.8,227.5z M109.6,226.4h30.1
					c-0.5-5.4-4.9-9.5-10.4-9.5H120C114.6,217,110.1,221.1,109.6,226.4z"/>
			</g>
		</g>
		<g>
			<g>
				<rect x="109.1" y="226.9" class="st6" width="31.2" height="15.2"/>
			</g>
			<g>
				<path d="M140.8,242.7h-32.2v-16.3h32.2V242.7z M109.6,241.7h30.2v-14.2h-30.2V241.7z"/>
			</g>
		</g>
		<g>
			<g>
				<rect x="110.8" y="230.7" class="st0" width="1.3" height="2.7"/>
			</g>
		</g>
		<g>
			<g>
				<rect x="116.3" y="230.7" class="st0" width="1.3" height="2.7"/>
			</g>
		</g>
		<g>
			<g>
				<rect x="121" y="230.7" class="st0" width="1.3" height="2.7"/>
			</g>
		</g>
		<g>
			<g>
				<rect x="126.5" y="230.7" class="st0" width="1.3" height="2.7"/>
			</g>
		</g>
		<g>
			<g>
				<rect x="131.9" y="230.7" class="st0" width="1.3" height="2.7"/>
			</g>
		</g>
		<g>
			<g>
				<rect x="136.6" y="230.7" class="st0" width="1.3" height="2.7"/>
			</g>
		</g>
	</g>
	<g>
		<g>
			<polygon points="378,242.2 377,242.2 377,193.5 336.7,193.5 336.7,242.2 335.7,242.2 335.7,192.4 378,192.4 			"/>
		</g>
		<g>
			<rect x="343.2" y="187.4" width="28.5" height="1"/>
		</g>
		<g>
			<rect x="344.5" y="187.9" width="1" height="54.3"/>
		</g>
		<g>
			<rect x="368.9" y="187.9" width="1" height="54.3"/>
		</g>
		<g>
			<rect x="340.3" y="198.2" width="1.4" height="2.6"/>
		</g>
		<g>
			<rect x="349.6" y="193.4" width="1.4" height="2.6"/>
		</g>
		<g>
			<rect x="354.3" y="193.4" width="1.4" height="2.6"/>
		</g>
		<g>
			<rect x="359" y="193.4" width="1.4" height="2.6"/>
		</g>
		<g>
			<rect x="363.7" y="193.4" width="1.4" height="2.6"/>
		</g>
		<g>
			<rect x="349.6" y="199.5" width="1.4" height="2.6"/>
		</g>
		<g>
			<rect x="354.3" y="199.5" width="1.4" height="2.6"/>
		</g>
		<g>
			<rect x="359" y="199.5" width="1.4" height="2.6"/>
		</g>
		<g>
			<rect x="363.7" y="199.5" width="1.4" height="2.6"/>
		</g>
		<g>
			<rect x="349.6" y="205" width="1.4" height="2.6"/>
		</g>
		<g>
			<rect x="354.3" y="205" width="1.4" height="2.6"/>
		</g>
		<g>
			<rect x="359" y="205" width="1.4" height="2.6"/>
		</g>
		<g>
			<rect x="363.7" y="205" width="1.4" height="2.6"/>
		</g>
		<g>
			<rect x="349.6" y="211.1" width="1.4" height="2.6"/>
		</g>
		<g>
			<rect x="354.3" y="211.1" width="1.4" height="2.6"/>
		</g>
		<g>
			<rect x="359" y="211.1" width="1.4" height="2.6"/>
		</g>
		<g>
			<rect x="363.7" y="211.1" width="1.4" height="2.6"/>
		</g>
		<g>
			<rect x="349.6" y="216.5" width="1.4" height="2.6"/>
		</g>
		<g>
			<rect x="354.3" y="216.5" width="1.4" height="2.6"/>
		</g>
		<g>
			<rect x="359" y="216.5" width="1.4" height="2.6"/>
		</g>
		<g>
			<rect x="363.7" y="216.5" width="1.4" height="2.6"/>
		</g>
		<g>
			<rect x="349.6" y="222.5" width="1.4" height="2.6"/>
		</g>
		<g>
			<rect x="354.3" y="222.5" width="1.4" height="2.6"/>
		</g>
		<g>
			<rect x="359" y="222.5" width="1.4" height="2.6"/>
		</g>
		<g>
			<rect x="363.7" y="222.5" width="1.4" height="2.6"/>
		</g>
		<g>
			<rect x="340.3" y="203.7" width="1.4" height="2.6"/>
		</g>
		<g>
			<rect x="340.3" y="209.8" width="1.4" height="2.6"/>
		</g>
		<g>
			<rect x="372.7" y="198.2" width="1.4" height="2.6"/>
		</g>
		<g>
			<rect x="372.7" y="203.7" width="1.4" height="2.6"/>
		</g>
		<g>
			<rect x="372.7" y="209.8" width="1.4" height="2.6"/>
		</g>
		<g>
			<polygon points="364.5,242.2 363.1,242.2 363.1,232.1 351.8,232.1 351.8,242.2 350.4,242.2 350.4,230.8 364.5,230.8 			"/>
		</g>
		<g>
			<rect x="356.4" y="231.4" width="1.4" height="10.8"/>
		</g>
		<g>
			<path class="st0" d="M355.5,184.9c-0.2,0-0.4-0.1-0.5-0.2c-0.3-0.2-0.4-0.5-0.3-0.8l0.3-1.7l-1.2-1.2c-0.2-0.2-0.3-0.6-0.2-0.9
				c0.1-0.3,0.4-0.5,0.7-0.6l1.7-0.2l0.8-1.5c0.3-0.6,1.3-0.6,1.5,0l0.8,1.5l1.7,0.2c0.3,0,0.6,0.3,0.7,0.6c0.1,0.3,0,0.7-0.2,0.9
				l-1.2,1.2l0.3,1.7c0.1,0.3-0.1,0.7-0.3,0.8s-0.6,0.2-0.9,0.1l-1.5-0.8l-1.5,0.8C355.8,184.8,355.6,184.9,355.5,184.9z
				 M354.6,180.4l1.4,1.4l-0.3,1.9l1.7-0.9l1.7,0.9l-0.3-1.9l1.4-1.4l-1.9-0.3l-0.9-1.8l-0.9,1.8L354.6,180.4z M357.3,178.1
				L357.3,178.1L357.3,178.1z"/>
		</g>
	</g>
</g>
</svg>
