<svg width="90" height="90" viewBox="0 0 90 90" fill="none" xmlns="http://www.w3.org/2000/svg">
<circle cx="25" cy="25" r="25" fill="#FEC433"/>
<path d="M26.4795 39.5958C30.3045 39.5958 33.6045 38.1333 35.4795 36.2583V23.7708H25.5795V28.3083H30.5295V33.7833C29.742 34.4208 28.392 34.7958 27.042 34.7958C21.6045 34.7958 18.8295 31.1958 18.8295 25.1208C18.8295 19.1957 22.017 15.5958 26.667 15.5958C29.142 15.5958 30.717 16.6083 32.1045 17.9208L35.0295 14.3582C33.2295 12.5583 30.4545 10.8333 26.4795 10.8333C19.092 10.8333 13.167 16.1583 13.167 25.3083C13.167 34.5708 18.942 39.5958 26.4795 39.5958Z" fill="white"/>
<circle cx="65" cy="65" r="25" fill="#999999"/>
<path d="M65.125 79.5958C71.5 79.5958 75.2875 75.7333 75.2875 71.1958C75.2875 67.2208 73.075 65.0458 69.7375 63.6583L66.1 62.1583C63.7375 61.2208 61.75 60.4708 61.75 58.4833C61.75 56.6833 63.2875 55.5958 65.725 55.5958C68.0125 55.5958 69.85 56.4208 71.65 57.8833L74.425 54.3957C72.175 52.1083 68.95 50.8333 65.725 50.8333C60.1375 50.8333 56.125 54.3208 56.125 58.8583C56.125 62.8708 58.975 65.1583 61.75 66.2833L65.4625 67.8583C67.9375 68.9083 69.625 69.5833 69.625 71.6458C69.625 73.5583 68.125 74.7958 65.2375 74.7958C62.8 74.7958 60.1375 73.5958 58.1875 71.7583L55 75.5833C57.7 78.1708 61.375 79.5958 65.125 79.5958Z" fill="white"/>
</svg>
