<svg width="24" height="24" viewBox="0 0 24 24" fill="none" xmlns="http://www.w3.org/2000/svg">
<path fill-rule="evenodd" clip-rule="evenodd" d="M4 2.34356V21.7791C4 21.9689 4.15382 22.1227 4.34356 22.1227H8.35545C8.49639 22.1227 8.62303 22.0366 8.6749 21.9056L8.96927 21.1619C9.02114 21.0309 9.14778 20.9448 9.28872 20.9448H10.0041C10.1428 20.9448 10.2679 21.0282 10.3212 21.1562L10.6495 21.944C10.6957 22.0549 10.7947 22.1339 10.9139 22.1492C14.0618 22.5531 20 21.618 20 14.7117C20 7.06545 12.31 7.4974 9.4925 8.96423C9.18857 9.12246 8.58896 8.85675 8.58896 8.5141V2.34356C8.58896 2.15382 8.43514 2 8.2454 2H4.34356C4.15382 2 4 2.15382 4 2.34356ZM12.0002 18C13.6808 18 15.0432 16.6376 15.0432 14.957C15.0432 13.2764 13.6808 11.9141 12.0002 11.9141C10.3197 11.9141 8.95729 13.2764 8.95729 14.957C8.95729 16.6376 10.3197 18 12.0002 18Z" fill="white"/>
</svg>
