<svg width="100" height="100" viewBox="0 0 100 100" fill="none" xmlns="http://www.w3.org/2000/svg">
<circle cx="50" cy="50" r="50" fill="#6AD7DD"/>
<path d="M48.6997 30.0194C49.2455 28.6602 51.1697 28.6602 51.7156 30.0194L56.5517 42.0625C56.7841 42.6413 57.3274 43.0359 57.9497 43.0782L70.8977 43.9561C72.3592 44.0552 72.9538 45.8852 71.8297 46.8244L61.8706 55.1453C61.3919 55.5452 61.1844 56.1839 61.3366 56.7888L64.5028 69.3744C64.8601 70.7949 63.3034 71.926 62.0628 71.1471L51.0717 64.2467C50.5434 63.9151 49.8718 63.9151 49.3436 64.2467L38.3524 71.1471C37.1118 71.926 35.5551 70.7949 35.9124 69.3744L39.0786 56.7888C39.2308 56.1839 39.0233 55.5452 38.5446 55.1453L28.5855 46.8244C27.4615 45.8852 28.0561 44.0552 29.5175 43.9561L42.4655 43.0782C43.0878 43.0359 43.631 42.6413 43.8635 42.0625L48.6997 30.0194Z" stroke="white" stroke-width="4" stroke-linecap="round" stroke-linejoin="round"/>
</svg>
