<?xml version="1.0" encoding="utf-8"?>
<!-- Generator: Adobe Illustrator 25.4.1, SVG Export Plug-In . SVG Version: 6.00 Build 0)  -->
<svg version="1.1" id="Layer_1" xmlns="http://www.w3.org/2000/svg" xmlns:xlink="http://www.w3.org/1999/xlink" x="0px" y="0px"
	 viewBox="0 0 233.49 27.62" style="enable-background:new 0 0 233.49 27.62;" xml:space="preserve">
<style type="text/css">
	.st0{fill:#636569;}
	.st1{fill:#A5BAC9;}
	.st2{fill:#7B7877;}
	.st3{fill:#E9E8E9;}
</style>
<g>
	<g>
		<g>
			<g>
				<g>
					<path class="st2" d="M45.63,7.9h1.64v11.49h-1.64v-5h-6.46v5h-1.64V7.9h1.64v4.97h6.46V7.9z"/>
					<path class="st2" d="M57.26,7.83h1.15l5.15,11.56h-1.68l-1.53-3.41h-4.9l-1.43,3.41h-1.69L57.26,7.83z M59.68,14.52l-1.85-4.16
						l-1.72,4.16H59.68z"/>
					<path class="st2" d="M77.74,7.9h1.56v11.49h-1.41l-7.68-8.85v8.85h-1.55V7.9H70l7.74,8.92V7.9z"/>
					<path class="st2" d="M100.18,7.9h1.64l-4.64,11.54h-0.36l-3.76-9.34l-3.8,9.34h-0.35L84.28,7.9h1.66l3.17,7.92L92.3,7.9h1.55
						l3.2,7.92L100.18,7.9z"/>
					<path class="st2" d="M115.59,7.9h1.64v11.49h-1.64v-5h-6.46v5h-1.65V7.9h1.65v4.97h6.46V7.9z"/>
					<path class="st2" d="M127.82,7.83h1.16l5.15,11.56h-1.68l-1.53-3.41h-4.9l-1.43,3.41h-1.69L127.82,7.83z M130.23,14.52
						l-1.85-4.16l-1.72,4.16H130.23z"/>
					<path class="st2" d="M145.3,19.39V7.9h2.88c1.17,0,2.09,0.29,2.77,0.86c0.68,0.58,1.02,1.35,1.02,2.33
						c0,0.67-0.17,1.25-0.5,1.74c-0.33,0.49-0.81,0.85-1.44,1.09c0.37,0.24,0.73,0.57,1.08,0.99c0.35,0.41,0.84,1.14,1.48,2.18
						c0.4,0.65,0.72,1.14,0.96,1.47l0.61,0.83h-1.96l-0.5-0.76c-0.02-0.03-0.05-0.07-0.1-0.14l-0.32-0.45l-0.51-0.84l-0.55-0.9
						c-0.34-0.47-0.65-0.85-0.93-1.13c-0.28-0.28-0.54-0.48-0.76-0.6c-0.23-0.12-0.61-0.18-1.15-0.18h-0.43v5H145.3z M147.44,9.3
						h-0.49v3.62h0.62c0.84,0,1.41-0.07,1.72-0.21c0.31-0.14,0.55-0.36,0.72-0.64c0.17-0.29,0.26-0.62,0.26-0.98
						c0-0.36-0.1-0.69-0.29-0.98c-0.19-0.29-0.46-0.5-0.81-0.62C148.83,9.36,148.25,9.3,147.44,9.3z"/>
					<path class="st2" d="M159.21,7.9h6.51v1.46h-4.87v3.5h4.7v1.47h-4.7v3.57h5.02v1.46h-6.67V7.9z"/>
					<path class="st2" d="M174.87,14.58l-1.25-0.76c-0.78-0.48-1.34-0.95-1.67-1.41c-0.33-0.46-0.5-1-0.5-1.6
						c0-0.9,0.31-1.64,0.94-2.2c0.63-0.56,1.44-0.85,2.44-0.85c0.96,0,1.84,0.27,2.64,0.81v1.87c-0.83-0.8-1.72-1.2-2.67-1.2
						c-0.54,0-0.98,0.12-1.32,0.38c-0.35,0.25-0.52,0.56-0.52,0.95c0,0.34,0.13,0.67,0.38,0.97c0.25,0.3,0.66,0.61,1.23,0.94
						l1.25,0.75c1.4,0.84,2.1,1.9,2.1,3.2c0,0.92-0.31,1.67-0.92,2.25c-0.62,0.58-1.42,0.86-2.41,0.86c-1.13,0-2.17-0.35-3.1-1.04
						v-2.09c0.89,1.12,1.92,1.68,3.08,1.68c0.52,0,0.95-0.14,1.29-0.43c0.34-0.29,0.51-0.65,0.51-1.08
						C176.38,15.87,175.88,15.2,174.87,14.58z"/>
					<path class="st2" d="M189.16,7.74c1.77,0,3.25,0.56,4.43,1.68c1.18,1.12,1.77,2.53,1.77,4.23s-0.6,3.1-1.79,4.21
						c-1.19,1.11-2.69,1.66-4.51,1.66c-1.73,0-3.17-0.55-4.33-1.66c-1.15-1.11-1.73-2.5-1.73-4.18c0-1.72,0.58-3.14,1.74-4.26
						C185.91,8.3,187.38,7.74,189.16,7.74z M189.22,9.3c-1.31,0-2.39,0.41-3.24,1.23c-0.84,0.82-1.27,1.87-1.27,3.15
						c0,1.24,0.42,2.27,1.27,3.09c0.85,0.82,1.91,1.23,3.19,1.23c1.28,0,2.35-0.42,3.21-1.26c0.86-0.84,1.29-1.88,1.29-3.13
						c0-1.22-0.43-2.24-1.29-3.07C191.53,9.72,190.47,9.3,189.22,9.3z"/>
					<path class="st2" d="M201.23,19.39V7.9h2.88c1.16,0,2.08,0.29,2.77,0.86c0.68,0.58,1.02,1.35,1.02,2.33
						c0,0.67-0.17,1.25-0.5,1.74c-0.34,0.49-0.81,0.85-1.44,1.09c0.37,0.24,0.73,0.57,1.08,0.99c0.35,0.41,0.85,1.14,1.48,2.18
						c0.4,0.65,0.72,1.14,0.96,1.47l0.61,0.83h-1.96l-0.5-0.76c-0.02-0.03-0.05-0.07-0.1-0.14l-0.32-0.45l-0.51-0.84l-0.55-0.9
						c-0.34-0.47-0.65-0.85-0.93-1.13c-0.28-0.28-0.54-0.48-0.77-0.6c-0.23-0.12-0.61-0.18-1.15-0.18h-0.43v5H201.23z M203.36,9.3
						h-0.49v3.62h0.62c0.84,0,1.4-0.07,1.71-0.21c0.31-0.14,0.55-0.36,0.72-0.64c0.17-0.29,0.26-0.62,0.26-0.98
						c0-0.36-0.09-0.69-0.29-0.98c-0.19-0.29-0.46-0.5-0.81-0.62C204.75,9.36,204.17,9.3,203.36,9.3z"/>
					<path class="st2" d="M212.64,7.88h9.6v1.46h-4.01v10.04h-1.65V9.35h-3.94V7.88z"/>
					<path class="st2" d="M230.43,14.58l-1.25-0.76c-0.78-0.48-1.34-0.95-1.67-1.41c-0.33-0.46-0.5-1-0.5-1.6
						c0-0.9,0.32-1.64,0.94-2.2c0.63-0.56,1.44-0.85,2.44-0.85c0.96,0,1.84,0.27,2.64,0.81v1.87c-0.83-0.8-1.72-1.2-2.67-1.2
						c-0.54,0-0.98,0.12-1.32,0.38c-0.35,0.25-0.52,0.56-0.52,0.95c0,0.34,0.13,0.67,0.38,0.97c0.25,0.3,0.66,0.61,1.23,0.94
						l1.25,0.75c1.4,0.84,2.1,1.9,2.1,3.2c0,0.92-0.31,1.67-0.93,2.25c-0.62,0.58-1.42,0.86-2.4,0.86c-1.14,0-2.17-0.35-3.1-1.04
						v-2.09c0.89,1.12,1.92,1.68,3.08,1.68c0.52,0,0.94-0.14,1.29-0.43c0.34-0.29,0.51-0.65,0.51-1.08
						C231.94,15.87,231.44,15.2,230.43,14.58z"/>
				</g>
			</g>
		</g>
	</g>
	<g>
		<g>
			<path class="st1" d="M11.46,0.77c0.77-0.14,1.54-0.2,2.32-0.2c0.78,0,1.56,0.07,2.34,0.21v16.3l-2.27-2.21l-2.39,2.27V0.77z"/>
			<path class="st3" d="M13.78,1.07c0.61,0,1.23,0.04,1.84,0.13v14.68l-1.08-1.05l-0.69-0.67l-0.7,0.66l-1.2,1.14V1.2
				C12.56,1.11,13.17,1.07,13.78,1.07 M13.78,0.07c-0.97,0-1.91,0.1-2.82,0.29v17.94l2.89-2.75l2.78,2.71V0.36
				C15.7,0.17,14.75,0.07,13.78,0.07L13.78,0.07z"/>
		</g>
		<g>
			<path class="st1" d="M7.28,26c0.29,0.16,0.58,0.3,0.88,0.43V1.26c-0.3,0.13-0.59,0.27-0.88,0.43V26z"/>
			<path class="st3" d="M8.16,1.26c-0.3,0.13-0.59,0.27-0.88,0.43V26c0.29,0.16,0.58,0.3,0.88,0.43V1.26L8.16,1.26z"/>
		</g>
		<g>
			<path class="st1" d="M19.42,26.42c0.3-0.14,0.6-0.28,0.89-0.44V1.71c-0.29-0.16-0.59-0.3-0.89-0.44V26.42z"/>
			<path class="st3" d="M19.42,1.27v25.15c0.3-0.14,0.6-0.28,0.89-0.44V1.71C20.01,1.55,19.72,1.41,19.42,1.27L19.42,1.27z"/>
		</g>
		<g>
			<path class="st1" d="M21.36,2.94c3.58,2.49,5.7,6.5,5.7,10.9c0,4.4-2.11,8.42-5.7,10.9V2.94z"/>
			<path class="st3" d="M21.86,3.94c2.97,2.41,4.7,6,4.7,9.9c0,3.91-1.73,7.49-4.7,9.9V3.94 M20.86,2.02v23.64
				c4.01-2.41,6.7-6.8,6.7-11.82C27.55,8.82,24.87,4.43,20.86,2.02L20.86,2.02z"/>
		</g>
		<g>
			<path class="st1" d="M13.78,27.12c-0.78,0-1.56-0.07-2.32-0.2v-5.93l2.36-2.31l2.3,2.23v6.01
				C15.35,27.05,14.56,27.12,13.78,27.12z"/>
			<path class="st3" d="M13.82,19.37l1.79,1.75v5.37c-0.61,0.09-1.22,0.13-1.84,0.13c-0.61,0-1.22-0.04-1.82-0.13v-5.3L13.82,19.37
				 M13.82,17.97l-2.86,2.8v6.56c0.91,0.19,1.85,0.29,2.82,0.29c0.97,0,1.92-0.1,2.84-0.29v-6.63L13.82,17.97L13.82,17.97z"/>
		</g>
		<g>
			<path class="st1" d="M6.23,24.77C2.68,22.3,0.5,18.2,0.5,13.84c0-4.35,2.17-8.46,5.73-10.92V24.77z"/>
			<path class="st3" d="M5.73,3.92v19.85C2.78,21.36,1,17.7,1,13.84C1,9.99,2.78,6.33,5.73,3.92 M6.73,2C2.7,4.41,0,8.81,0,13.84
				c0,5.03,2.7,9.44,6.73,11.84V2L6.73,2z"/>
		</g>
	</g>
</g>
</svg>
